# xmcd
#
# Track frame offsets:
#	150
#	17930
#	37612
#	55365
#	70867
#	82802
#	97327
#	108715
#	120562
#	133485
#	150987
#	166920
#	181055
#	200367
#
# Disc length: 2876
#
# Revision: 2
# Processed by: cddbd v1.5.1PL0 Copyright (c) Steve Scherf et al.
# Submitted via: DiscPlay 4.0.4
# Normalized: r1:DSETVAR1
#
DISCID=b60b3a0e
DTITLE=Various Artist - Mr Music Country 4/96
DYEAR=1900
DGENRE=
TTITLE0=Ken Holloway - Runs in the Blood
TTITLE1=Mary-Chapin Carpenter - Down at the twist and shout
TTITLE2=Collin Raye - Dreaming my dreams with you
TTITLE3=Gibson/Miller Band - Mammas don't let your babies grow up to be cowboys
TTITLE4=Ricochet - From good to bad to worse to gone
TTITLE5=Jeannie C. Riley - Ballad of the roses and thorns
TTITLE6=Tony Pritchett - All I wanna do
TTITLE7=W.C. Taylor jr - Is ther room in your arms (For me tonight)
TTITLE8=Stacy Dean Campbell - Why you been gone so long
TTITLE9=Tammy Wynete - If it's the last thing I do
TTITLE10=Fear Deal - Rose colored glasses
TTITLE11=Becky Hobbs - I ain't had a rock in ages
TTITLE12=Ken Mellons - He ain't even cold yet
TTITLE13=Mike Reid - The hurtin' side
EXTD=
EXTT0=
EXTT1=
EXTT2=
EXTT3=
EXTT4=
EXTT5=
EXTT6=
EXTT7=
EXTT8=
EXTT9=
EXTT10=
EXTT11=
EXTT12=
EXTT13=
PLAYORDER=
